<svg xmlns="http://www.w3.org/2000/svg" xmlns:xlink="http://www.w3.org/1999/xlink" width="1274" height="674" viewbox="0 0 1274 674"><path transform="translate(677.7952434953893 303.8462516086631) scale(1) translate(-31.089176587982024 0) rotate(0)" d="M 59 0 L 257.0721485718328 0" fill="none" stroke="#000000" stroke-width="5"></path><polygon transform="translate(677.7952434953893 303.8462516086631) scale(1) translate(-31.089176587982024 0) rotate(0) translate(281.93429918958117 0) rotate(0)" points="-24.8621506177483,0 -27.62461179749811,9.20820393249937 0,0 -27.62461179749811,-9.20820393249937" fill="undefined" stroke="none" stroke-width="5"></polygon><rect transform="translate(677.7952434953893 303.8462516086631) scale(1) translate(126.94689769793439 0) rotate(0) translate(0 -13) translate(0 0) translate(-41.44921875 0)" x="0" y="0" width="82.8984375" height="26" rx="5" ry="5" fill="#ffffff" stroke="none"></rect><text xml:space="preserve" transform="translate(677.7952434953893 303.8462516086631) scale(1) translate(126.94689769793439 0) rotate(0) translate(0 -13) translate(0 0) translate(-41.44921875 0)" x="5" y="17.45703125" font-family="sans-serif" font-size="16" font-weight="normal" text-anchor="left" fill="#000000">SUBJECT</text><path transform="translate(677.7952434953893 303.8462516086631) scale(1) translate(309.84512260159914 0) rotate(-130.362887292247)" d="M 59 0 L 244.03815969144264 0" fill="none" stroke="#000000" stroke-width="5"></path><polygon transform="translate(677.7952434953893 303.8462516086631) scale(1) translate(309.84512260159914 0) rotate(-130.362887292247) translate(268.90031030919096 0) rotate(0)" points="-24.8621506177483,0 -27.62461179749811,9.20820393249937 0,0 -27.62461179749811,-9.20820393249937" fill="undefined" stroke="none" stroke-width="5"></polygon><rect transform="translate(677.7952434953893 303.8462516086631) scale(1) translate(211.71735319043498 -115.4511690182627) rotate(49.637112707753005) translate(0 -13) translate(0 0) translate(-45.8984375 0)" x="0" y="0" width="91.796875" height="26" rx="5" ry="5" fill="#ffffff" stroke="none"></rect><text xml:space="preserve" transform="translate(677.7952434953893 303.8462516086631) scale(1) translate(211.71735319043498 -115.4511690182627) rotate(49.637112707753005) translate(0 -13) translate(0 0) translate(-45.8984375 0)" x="5" y="17.45703125" font-family="sans-serif" font-size="16" font-weight="normal" text-anchor="left" fill="#000000">IN_SQUAD</text><path transform="translate(677.7952434953893 303.8462516086631) scale(1) translate(541.8215156268194 -249.84625160866312) rotate(132.87598523078287)" d="M 59 0 L 257.0721485718328 0" fill="none" stroke="#000000" stroke-width="5"></path><polygon transform="translate(677.7952434953893 303.8462516086631) scale(1) translate(541.8215156268194 -249.84625160866312) rotate(132.87598523078287) translate(281.93429918958117 0) rotate(0)" points="-24.8621506177483,0 -27.62461179749811,9.20820393249937 0,0 -27.62461179749811,-9.20820393249937" fill="undefined" stroke="none" stroke-width="5"></polygon><rect transform="translate(677.7952434953893 303.8462516086631) scale(1) translate(434.2915939737123 -134.03296772041335) rotate(312.8759852307829) translate(0 -13) translate(0 0) translate(-80.58203125 0)" x="0" y="0" width="161.1640625" height="26" rx="5" ry="5" fill="#ffffff" stroke="none"></rect><text xml:space="preserve" transform="translate(677.7952434953893 303.8462516086631) scale(1) translate(434.2915939737123 -134.03296772041335) rotate(312.8759852307829) translate(0 -13) translate(0 0) translate(-80.58203125 0)" x="5" y="17.45703125" font-family="sans-serif" font-size="16" font-weight="normal" text-anchor="left" fill="#000000">HAS_APPEARANCE</text><path transform="translate(677.7952434953893 303.8462516086631) scale(1) translate(-623.7952434953893 0) rotate(90)" d="M 59 0 L 212.49088283595532 0" fill="none" stroke="#000000" stroke-width="5"></path><polygon transform="translate(677.7952434953893 303.8462516086631) scale(1) translate(-623.7952434953893 0) rotate(90) translate(237.35303345370363 0) rotate(0)" points="-24.8621506177483,0 -27.62461179749811,9.20820393249937 0,0 -27.62461179749811,-9.20820393249937" fill="undefined" stroke="none" stroke-width="5"></polygon><rect transform="translate(677.7952434953893 303.8462516086631) scale(1) translate(-623.7952434953893 135.74544141797764) rotate(270) translate(0 -13) translate(0 0) translate(-54.4921875 0)" x="0" y="0" width="108.984375" height="26" rx="5" ry="5" fill="#ffffff" stroke="none"></rect><text xml:space="preserve" transform="translate(677.7952434953893 303.8462516086631) scale(1) translate(-623.7952434953893 135.74544141797764) rotate(270) translate(0 -13) translate(0 0) translate(-54.4921875 0)" x="5" y="17.45703125" font-family="sans-serif" font-size="16" font-weight="normal" text-anchor="left" fill="#000000">AT_STADIUM</text><path transform="translate(677.7952434953893 303.8462516086631) scale(1) translate(-623.7952434953893 0) rotate(-90)" d="M 59 0 L 165.98410099091484 0" fill="none" stroke="#000000" stroke-width="5"></path><polygon transform="translate(677.7952434953893 303.8462516086631) scale(1) translate(-623.7952434953893 0) rotate(-90) translate(190.84625160866312 0) rotate(0)" points="-24.8621506177483,0 -27.62461179749811,9.20820393249937 0,0 -27.62461179749811,-9.20820393249937" fill="undefined" stroke="none" stroke-width="5"></polygon><rect transform="translate(677.7952434953893 303.8462516086631) scale(1) translate(-623.7952434953893 -112.49205049545742) rotate(90) translate(0 -13) translate(0 0) translate(-42.78515625 0)" x="0" y="0" width="85.5703125" height="26" rx="5" ry="5" fill="#ffffff" stroke="none"></rect><text xml:space="preserve" transform="translate(677.7952434953893 303.8462516086631) scale(1) translate(-623.7952434953893 -112.49205049545742) rotate(90) translate(0 -13) translate(0 0) translate(-42.78515625 0)" x="5" y="17.45703125" font-family="sans-serif" font-size="16" font-weight="normal" text-anchor="left" fill="#000000">REFEREE</text><path transform="translate(677.7952434953893 303.8462516086631) scale(1) translate(-31.089176587982024 0) rotate(90)" d="M 59 0 L 231.8937953958688 0" fill="none" stroke="#000000" stroke-width="5"></path><polygon transform="translate(677.7952434953893 303.8462516086631) scale(1) translate(-31.089176587982024 0) rotate(90) translate(256.7559460136171 0) rotate(0)" points="-24.8621506177483,0 -27.62461179749811,9.20820393249937 0,0 -27.62461179749811,-9.20820393249937" fill="undefined" stroke="none" stroke-width="5"></polygon><rect transform="translate(677.7952434953893 303.8462516086631) scale(1) translate(-31.089176587982013 145.4468976979344) rotate(270) translate(0 -13) translate(0 0) translate(-57.45703125 0)" x="0" y="0" width="114.9140625" height="26" rx="5" ry="5" fill="#ffffff" stroke="none"></rect><text xml:space="preserve" transform="translate(677.7952434953893 303.8462516086631) scale(1) translate(-31.089176587982013 145.4468976979344) rotate(270) translate(0 -13) translate(0 0) translate(-57.45703125 0)" x="5" y="17.45703125" font-family="sans-serif" font-size="16" font-weight="normal" text-anchor="left" fill="#000000">NEXT_EVENT</text><path transform="translate(677.7952434953893 303.8462516086631) scale(1) translate(-623.7952434953893 0) rotate(0)" d="M 59 0 L 212.49088283595532 0" fill="none" stroke="#000000" stroke-width="5"></path><polygon transform="translate(677.7952434953893 303.8462516086631) scale(1) translate(-623.7952434953893 0) rotate(0) translate(237.35303345370363 0) rotate(0)" points="-24.8621506177483,0 -27.62461179749811,9.20820393249937 0,0 -27.62461179749811,-9.20820393249937" fill="undefined" stroke="none" stroke-width="5"></polygon><rect transform="translate(677.7952434953893 303.8462516086631) scale(1) translate(-488.04980207741164 0) rotate(0) translate(0 -13) translate(0 0) translate(-56.5703125 0)" x="0" y="0" width="113.140625" height="26" rx="5" ry="5" fill="#ffffff" stroke="none"></rect><text xml:space="preserve" transform="translate(677.7952434953893 303.8462516086631) scale(1) translate(-488.04980207741164 0) rotate(0) translate(0 -13) translate(0 0) translate(-56.5703125 0)" x="5" y="17.45703125" font-family="sans-serif" font-size="16" font-weight="normal" text-anchor="left" fill="#000000">HAS_PERIOD</text><path transform="translate(677.7952434953893 303.8462516086631) scale(1) translate(-327.44221004168566 0) rotate(0)" d="M 59 0 L 212.49088283595532 0" fill="none" stroke="#000000" stroke-width="5"></path><polygon transform="translate(677.7952434953893 303.8462516086631) scale(1) translate(-327.44221004168566 0) rotate(0) translate(237.35303345370363 0) rotate(0)" points="-24.8621506177483,0 -27.62461179749811,9.20820393249937 0,0 -27.62461179749811,-9.20820393249937" fill="undefined" stroke="none" stroke-width="5"></polygon><rect transform="translate(677.7952434953893 303.8462516086631) scale(1) translate(-191.696768623708 0) rotate(0) translate(0 -13) translate(0 0) translate(-52.5703125 0)" x="0" y="0" width="105.140625" height="26" rx="5" ry="5" fill="#ffffff" stroke="none"></rect><text xml:space="preserve" transform="translate(677.7952434953893 303.8462516086631) scale(1) translate(-191.696768623708 0) rotate(0) translate(0 -13) translate(0 0) translate(-52.5703125 0)" x="5" y="17.45703125" font-family="sans-serif" font-size="16" font-weight="normal" text-anchor="left" fill="#000000">HAS_EVENT</text><circle transform="translate(677.7952434953893 303.8462516086631) scale(1)" cx="-31.089176587982024" cy="0" r="52" fill="#ffffff" stroke="#000000" strokewidth="4"></circle><text xml:space="preserve" transform="translate(677.7952434953893 303.8462516086631) scale(1) translate(-31.089176587982024 0) scale(0.63671911328125) translate(0 0) translate(0 0)" x="0" y="13.92822265625" font-family="sans-serif" font-size="50" font-weight="normal" text-anchor="middle" fill="#000000">Event</text><circle transform="translate(677.7952434953893 303.8462516086631) scale(1)" cx="309.84512260159914" cy="0" r="52" fill="#ffffff" stroke="#000000" strokewidth="4"></circle><text xml:space="preserve" transform="translate(677.7952434953893 303.8462516086631) scale(1) translate(309.84512260159914 0) scale(0.32421942578124996) translate(0 0) translate(0 0)" x="0" y="13.92822265625" font-family="sans-serif" font-size="50" font-weight="normal" text-anchor="middle" fill="#000000">Appearance</text><circle transform="translate(677.7952434953893 303.8462516086631) scale(1)" cx="97.48819651261016" cy="-249.84625160866312" r="52" fill="#ffffff" stroke="#000000" strokewidth="4"></circle><text xml:space="preserve" transform="translate(677.7952434953893 303.8462516086631) scale(1) translate(97.48819651261016 -249.84625160866312) scale(0.57421917578125) translate(0 0) translate(0 0)" x="0" y="13.92822265625" font-family="sans-serif" font-size="50" font-weight="normal" text-anchor="middle" fill="#000000">Squad</text><circle transform="translate(677.7952434953893 303.8462516086631) scale(1)" cx="541.8215156268194" cy="-249.84625160866312" r="52" fill="#ffffff" stroke="#000000" strokewidth="4"></circle><text xml:space="preserve" transform="translate(677.7952434953893 303.8462516086631) scale(1) translate(541.8215156268194 -249.84625160866312) scale(0.58203166796875) translate(0 0) translate(0 0)" x="0" y="13.92822265625" font-family="sans-serif" font-size="50" font-weight="normal" text-anchor="middle" fill="#000000">Player</text><circle transform="translate(677.7952434953893 303.8462516086631) scale(1)" cx="-623.7952434953893" cy="0" r="52" fill="#ffffff" stroke="#000000" strokewidth="4"></circle><text xml:space="preserve" transform="translate(677.7952434953893 303.8462516086631) scale(1) translate(-623.7952434953893 0) scale(0.6015628984374999) translate(0 0) translate(0 0)" x="0" y="13.92822265625" font-family="sans-serif" font-size="50" font-weight="normal" text-anchor="middle" fill="#000000">Match</text><circle transform="translate(677.7952434953893 303.8462516086631) scale(1)" cx="-623.7952434953893" cy="296.35303345370363" r="52" fill="#ffffff" stroke="#000000" strokewidth="4"></circle><text xml:space="preserve" transform="translate(677.7952434953893 303.8462516086631) scale(1) translate(-623.7952434953893 296.35303345370363) scale(0.46484428515625) translate(0 0) translate(0 0)" x="0" y="13.92822265625" font-family="sans-serif" font-size="50" font-weight="normal" text-anchor="middle" fill="#000000">Stadium</text><circle transform="translate(677.7952434953893 303.8462516086631) scale(1)" cx="-623.7952434953893" cy="-249.84625160866312" r="52" fill="#ffffff" stroke="#000000" strokewidth="4"></circle><text xml:space="preserve" transform="translate(677.7952434953893 303.8462516086631) scale(1) translate(-623.7952434953893 -249.84625160866312) scale(0.4765630234375) translate(0 0) translate(0 0)" x="0" y="13.92822265625" font-family="sans-serif" font-size="50" font-weight="normal" text-anchor="middle" fill="#000000">Referee</text><circle transform="translate(677.7952434953893 303.8462516086631) scale(1)" cx="-31.089176587982024" cy="315.7559460136171" r="52" fill="#ffffff" stroke="#000000" strokewidth="4"></circle><text xml:space="preserve" transform="translate(677.7952434953893 303.8462516086631) scale(1) translate(-31.089176587982024 315.7559460136171) scale(0.63671911328125) translate(0 0) translate(0 0)" x="0" y="13.92822265625" font-family="sans-serif" font-size="50" font-weight="normal" text-anchor="middle" fill="#000000">Event</text><circle transform="translate(677.7952434953893 303.8462516086631) scale(1)" cx="-327.44221004168566" cy="0" r="52" fill="#ffffff" stroke="#000000" strokewidth="4"></circle><text xml:space="preserve" transform="translate(677.7952434953893 303.8462516086631) scale(1) translate(-327.44221004168566 0) scale(0.3125006875) translate(0 0) translate(0 0)" x="0" y="13.92822265625" font-family="sans-serif" font-size="50" font-weight="normal" text-anchor="middle" fill="#000000">MatchPeriod</text></svg>