<svg xmlns="http://www.w3.org/2000/svg" class="graphdiagram" viewBox="-1452.1986073469707 -358.7004911488948 2351.9318554842794 1773.4106864341231"><g class="layer relationships"><g class="related-pair"><g class="relationship" transform="translate(-1075.0045166015625,295) rotate(0)"><path class="relationship" d="M 140.0764529267385 4 L 530.7597416523679 4 L 530.7597416523679 16 L 562.7597416523679 0 L 530.7597416523679 -16 L 530.7597416523679 -4 L 140.0764529267385 -4 Z" fill="rgb(0, 0, 0)" stroke="rgb(51, 51, 51)" stroke-width="0px"/><text class="type" text-anchor="middle" baseline-shift="30%" alignment-baseline="alphabetic" x="335.4180972895532" y="0" font-size="50px" font-family="&quot;Gill Sans&quot;, &quot;Gill Sans MT&quot;, Calibri, sans-serif">PURCHASED</text></g></g><g class="related-pair"><g class="relationship" transform="translate(-350.769287109375,295) rotate(0)"><path class="relationship" d="M 161.4754878398196 4 L 734.5838816186226 4 L 734.5838816186226 16 L 766.5838816186226 0 L 734.5838816186226 -16 L 734.5838816186226 -4 L 161.4754878398196 -4 Z" fill="rgb(0, 0, 0)" stroke="rgb(51, 51, 51)" stroke-width="0px"/><text class="type" text-anchor="middle" baseline-shift="30%" alignment-baseline="alphabetic" x="448.0296847292211" y="0" font-size="50px" font-family="&quot;Gill Sans&quot;, &quot;Gill Sans MT&quot;, Calibri, sans-serif">FOR_PRODUCT</text></g></g><g class="related-pair"><g class="relationship" transform="translate(534.543815612793,295) rotate(90)"><path class="relationship" d="M 118.72922110354536 4 L 550.0542977699407 4 L 550.0542977699407 16 L 582.0542977699407 0 L 550.0542977699407 -16 L 550.0542977699407 -4 L 118.72922110354536 -4 Z" fill="rgb(0, 0, 0)" stroke="rgb(51, 51, 51)" stroke-width="0px"/><text class="type" text-anchor="middle" baseline-shift="30%" alignment-baseline="alphabetic" x="334.39175943674303" y="0" font-size="50px" font-family="&quot;Gill Sans&quot;, &quot;Gill Sans MT&quot;, Calibri, sans-serif">REQUIRES_SCRIPT</text></g></g></g><g class="layer nodes"><circle class="node node-id-0" r="103.72922110354536" fill="rgb(255, 255, 255)" stroke="rgb(0, 0, 0)" stroke-width="8px" cx="534.543815612793" cy="295"/><g class="caption"><text class="caption node" text-anchor="middle" alignment-baseline="central" x="534.543815612793" y="295" fill="rgb(51, 51, 51)" font-size="50px" font-family="&quot;Gill Sans&quot;, &quot;Gill Sans MT&quot;, Calibri, sans-serif">Product</text></g><circle class="node node-id-1" r="125.07645292673851" fill="rgb(255, 255, 255)" stroke="rgb(0, 0, 0)" stroke-width="8px" cx="-1075.0045166015625" cy="295"/><g class="caption"><text class="caption node" text-anchor="middle" alignment-baseline="central" x="-1075.0045166015625" y="295" fill="rgb(51, 51, 51)" font-size="50px" font-family="&quot;Gill Sans&quot;, &quot;Gill Sans MT&quot;, Calibri, sans-serif">Customer</text></g><circle class="node node-id-2" r="146.4754878398196" fill="rgb(255, 255, 255)" stroke="rgb(0, 0, 0)" stroke-width="8px" cx="-350.769287109375" cy="295"/><g class="caption"><text class="caption node" text-anchor="middle" alignment-baseline="central" x="-350.769287109375" y="295" fill="rgb(51, 51, 51)" font-size="50px" font-family="&quot;Gill Sans&quot;, &quot;Gill Sans MT&quot;, Calibri, sans-serif">Subscription</text></g><circle class="node node-id-3" r="82.71544710310619" fill="rgb(255, 255, 255)" stroke="rgb(0, 0, 0)" stroke-width="8px" cx="534.543815612793" cy="974.7697448730469"/><g class="caption"><text class="caption node" text-anchor="middle" alignment-baseline="central" x="534.543815612793" y="974.7697448730469" fill="rgb(51, 51, 51)" font-size="50px" font-family="&quot;Gill Sans&quot;, &quot;Gill Sans MT&quot;, Calibri, sans-serif">Script</text></g></g><g class="layer properties"><g class="speech-bubble node-speech-bubble" transform="translate(607.8914512623086,221.65236435048433) "><path class="speech-bubble-outline" transform="scale(1,-1) " d="M 0 0 L 30 20 L 280.341796875 20 A 10 10 0 0 1 290.341796875 30 L 290.341796875 130 A 10 10 0 0 1 280.341796875 140 L 30 140 A 10 10 0 0 1 20 130 L 20 30 Z" fill="rgb(255, 255, 255)" stroke="rgb(0, 0, 0)" stroke-width="3px"/><text class="speech-bubble-content property-key" x="163.69140625" y="-105" alignment-baseline="central" text-anchor="end" font-size="50px" font-family="&quot;Gill Sans&quot;, &quot;Gill Sans MT&quot;, Calibri, sans-serif" xml:space="preserve">id: </text><text class="speech-bubble-content property-key" x="163.69140625" y="-55" alignment-baseline="central" text-anchor="end" font-size="50px" font-family="&quot;Gill Sans&quot;, &quot;Gill Sans MT&quot;, Calibri, sans-serif" xml:space="preserve">name: </text><text class="speech-bubble-content property-value" x="163.69140625" y="-105" alignment-baseline="central" font-size="50px" font-family="&quot;Gill Sans&quot;, &quot;Gill Sans MT&quot;, Calibri, sans-serif">String</text><text class="speech-bubble-content property-value" x="163.69140625" y="-55" alignment-baseline="central" font-size="50px" font-family="&quot;Gill Sans&quot;, &quot;Gill Sans MT&quot;, Calibri, sans-serif">String</text></g><g class="speech-bubble node-speech-bubble" transform="translate(-1200.080969528301,295) "><path class="speech-bubble-outline" transform="scale(-1,1) " d="M 0 0 L 20 -10 L 20 -50 A 10 10 0 0 1 30 -60 L 280.341796875 -60 A 10 10 0 0 1 290.341796875 -50 L 290.341796875 50 A 10 10 0 0 1 280.341796875 60 L 30 60 A 10 10 0 0 1 20 50 L 20 10 Z" fill="rgb(255, 255, 255)" stroke="rgb(0, 0, 0)" stroke-width="3px"/><text class="speech-bubble-content property-key" x="-146.650390625" y="-25" alignment-baseline="central" text-anchor="end" font-size="50px" font-family="&quot;Gill Sans&quot;, &quot;Gill Sans MT&quot;, Calibri, sans-serif" xml:space="preserve">id: </text><text class="speech-bubble-content property-key" x="-146.650390625" y="25" alignment-baseline="central" text-anchor="end" font-size="50px" font-family="&quot;Gill Sans&quot;, &quot;Gill Sans MT&quot;, Calibri, sans-serif" xml:space="preserve">name: </text><text class="speech-bubble-content property-value" x="-146.650390625" y="-25" alignment-baseline="central" font-size="50px" font-family="&quot;Gill Sans&quot;, &quot;Gill Sans MT&quot;, Calibri, sans-serif">String</text><text class="speech-bubble-content property-value" x="-146.650390625" y="25" alignment-baseline="central" font-size="50px" font-family="&quot;Gill Sans&quot;, &quot;Gill Sans MT&quot;, Calibri, sans-serif">String</text></g><g class="speech-bubble node-speech-bubble" transform="translate(-350.769287109375,148.5245121601804) "><path class="speech-bubble-outline" transform="scale(1,-1) " d="M 0 0 L -10 20 L -167.3095703125 20 A 10 10 0 0 0 -177.3095703125 30 L -177.3095703125 230 A 10 10 0 0 0 -167.3095703125 240 L 167.3095703125 240 A 10 10 0 0 0 177.3095703125 230 L 177.3095703125 30 A 10 10 0 0 0 167.3095703125 20 L 10 20 Z" fill="rgb(255, 255, 255)" stroke="rgb(0, 0, 0)" stroke-width="3px"/><text class="speech-bubble-content property-key" x="50.6591796875" y="-205" alignment-baseline="central" text-anchor="end" font-size="50px" font-family="&quot;Gill Sans&quot;, &quot;Gill Sans MT&quot;, Calibri, sans-serif" xml:space="preserve">id: </text><text class="speech-bubble-content property-key" x="50.6591796875" y="-155" alignment-baseline="central" text-anchor="end" font-size="50px" font-family="&quot;Gill Sans&quot;, &quot;Gill Sans MT&quot;, Calibri, sans-serif" xml:space="preserve">startDate: </text><text class="speech-bubble-content property-key" x="50.6591796875" y="-105" alignment-baseline="central" text-anchor="end" font-size="50px" font-family="&quot;Gill Sans&quot;, &quot;Gill Sans MT&quot;, Calibri, sans-serif" xml:space="preserve">endDate: </text><text class="speech-bubble-content property-key" x="50.6591796875" y="-55" alignment-baseline="central" text-anchor="end" font-size="50px" font-family="&quot;Gill Sans&quot;, &quot;Gill Sans MT&quot;, Calibri, sans-serif" xml:space="preserve">status: </text><text class="speech-bubble-content property-value" x="50.6591796875" y="-205" alignment-baseline="central" font-size="50px" font-family="&quot;Gill Sans&quot;, &quot;Gill Sans MT&quot;, Calibri, sans-serif">String</text><text class="speech-bubble-content property-value" x="50.6591796875" y="-155" alignment-baseline="central" font-size="50px" font-family="&quot;Gill Sans&quot;, &quot;Gill Sans MT&quot;, Calibri, sans-serif">Date</text><text class="speech-bubble-content property-value" x="50.6591796875" y="-105" alignment-baseline="central" font-size="50px" font-family="&quot;Gill Sans&quot;, &quot;Gill Sans MT&quot;, Calibri, sans-serif">Date</text><text class="speech-bubble-content property-value" x="50.6591796875" y="-55" alignment-baseline="central" font-size="50px" font-family="&quot;Gill Sans&quot;, &quot;Gill Sans MT&quot;, Calibri, sans-serif">String</text></g><g class="speech-bubble node-speech-bubble" transform="translate(534.543815612793,1057.4851919761531) "><path class="speech-bubble-outline" transform="scale(1,1) " d="M 0 0 L -10 20 L -139.5263671875 20 A 10 10 0 0 0 -149.5263671875 30 L -149.5263671875 80 A 10 10 0 0 0 -139.5263671875 90 L 139.5263671875 90 A 10 10 0 0 0 149.5263671875 80 L 149.5263671875 30 A 10 10 0 0 0 139.5263671875 20 L 10 20 Z" fill="rgb(255, 255, 255)" stroke="rgb(0, 0, 0)" stroke-width="3px"/><text class="speech-bubble-content property-key" x="22.8759765625" y="55" alignment-baseline="central" text-anchor="end" font-size="50px" font-family="&quot;Gill Sans&quot;, &quot;Gill Sans MT&quot;, Calibri, sans-serif" xml:space="preserve">cypher: </text><text class="speech-bubble-content property-value" x="22.8759765625" y="55" alignment-baseline="central" font-size="50px" font-family="&quot;Gill Sans&quot;, &quot;Gill Sans MT&quot;, Calibri, sans-serif">String</text></g></g><g class="layer overlay"><circle class="node overlay" r="107.72922110354536" stroke="none" fill="rgba(255, 255, 255, 0)" cx="534.543815612793" cy="295"/><circle class="node ring" r="112.72922110354536" fill="none" stroke="rgba(255, 255, 255, 0)" stroke-width="10px" cx="534.543815612793" cy="295"/><circle class="node overlay" r="129.0764529267385" stroke="none" fill="rgba(255, 255, 255, 0)" cx="-1075.0045166015625" cy="295"/><circle class="node ring" r="134.0764529267385" fill="none" stroke="rgba(255, 255, 255, 0)" stroke-width="10px" cx="-1075.0045166015625" cy="295"/><circle class="node overlay" r="150.4754878398196" stroke="none" fill="rgba(255, 255, 255, 0)" cx="-350.769287109375" cy="295"/><circle class="node ring" r="155.4754878398196" fill="none" stroke="rgba(255, 255, 255, 0)" stroke-width="10px" cx="-350.769287109375" cy="295"/><path class="relationship overlay" fill="rgba(255, 255, 255, 0)" stroke="rgba(255, 255, 255, 0)" stroke-width="10px" transform="translate(-1075.0045166015625,295) rotate(0)" d="M 140.0764529267385 4 L 530.7597416523679 4 L 530.7597416523679 16 L 562.7597416523679 0 L 530.7597416523679 -16 L 530.7597416523679 -4 L 140.0764529267385 -4 Z"/><path class="relationship overlay" fill="rgba(255, 255, 255, 0)" stroke="rgba(255, 255, 255, 0)" stroke-width="10px" transform="translate(-350.769287109375,295) rotate(0)" d="M 161.4754878398196 4 L 734.5838816186226 4 L 734.5838816186226 16 L 766.5838816186226 0 L 734.5838816186226 -16 L 734.5838816186226 -4 L 161.4754878398196 -4 Z"/><circle class="node overlay" r="86.71544710310619" stroke="none" fill="rgba(255, 255, 255, 0)" cx="534.543815612793" cy="974.7697448730469"/><circle class="node ring" r="91.71544710310619" fill="none" stroke="rgba(255, 255, 255, 0)" stroke-width="10px" cx="534.543815612793" cy="974.7697448730469"/><path class="relationship overlay" fill="rgba(255, 255, 255, 0)" stroke="rgba(255, 255, 255, 0)" stroke-width="10px" transform="translate(534.543815612793,295) rotate(90)" d="M 118.72922110354536 4 L 550.0542977699407 4 L 550.0542977699407 16 L 582.0542977699407 0 L 550.0542977699407 -16 L 550.0542977699407 -4 L 118.72922110354536 -4 Z"/></g></svg>