<?xml version="1.0" encoding="UTF-8" standalone="no"?>
<svg width="453px" height="453px" viewBox="0 0 453 453" version="1.1" xmlns="http://www.w3.org/2000/svg" xmlns:xlink="http://www.w3.org/1999/xlink" xmlns:sketch="http://www.bohemiancoding.com/sketch/ns">
    <!-- Generator: Sketch 3.4.2 (15857) - http://www.bohemiancoding.com/sketch -->
    <title>ac-green-</title>
    <desc>Created with Sketch.</desc>
    <defs></defs>
    <g id="Page-1" stroke="none" stroke-width="1" fill="none" fill-rule="evenodd" sketch:type="MSPage">
        <g id="Oval-3-+-ac-Copy" sketch:type="MSLayerGroup" fill="#2F8132">
            <path d="M411.232226,356.959247 C370.217858,414.778089 302.720403,452.513661 226.403614,452.513661 C101.364351,452.513661 0,351.215028 0,226.256831 C0,101.298634 101.364351,0 226.403614,0 C351.442878,0 452.807229,101.298634 452.807229,226.256831 C452.807229,256.003114 447.06314,284.408663 436.622973,310.426147 C432.599908,317.608558 428.502881,322.942847 424.331843,326.42909 C415.235224,334.237787 404.972525,338.142077 393.543439,338.142077 C377.566044,338.142077 364.883448,330.828817 355.49527,316.202079 C346.107093,301.575341 341.413074,284.705312 341.413074,265.591487 C341.413074,246.827305 346.136248,231.734603 355.582737,220.312927 C362.69676,211.688396 372.084797,207.376195 383.747129,207.376195 C390.977775,207.376195 396.633922,209.124385 400.715738,212.620816 C404.797554,216.233795 407.159141,221.478364 407.800569,228.354679 C408.441998,235.230994 409.75399,239.892833 411.736587,242.340335 C415.235287,246.769148 420.424947,248.983521 427.305723,248.983521 C432.437149,248.983521 436.431438,247.614106 439.28871,244.875235 C442.145981,242.136364 443.574595,238.552575 443.574595,234.123762 C443.574595,225.149588 438.501557,216.49605 428.355328,208.162888 C418.209098,199.829727 405.264104,195.663209 389.519955,195.663209 C368.527756,195.663209 350.538879,203.530061 335.552781,219.264003 C324.906818,230.441226 318.042301,244.000349 314.959149,259.941592 L314.959149,250.556907 C314.959149,235.056061 313.909555,224.800017 311.810335,219.788465 C308.544882,212.096316 303.471844,206.443836 296.591067,202.830857 C287.494448,198.052401 275.832291,195.663209 261.604245,195.663209 C243.061137,195.663209 228.658372,199.858863 218.39552,208.250299 C208.132667,216.641734 203.001318,225.848866 203.001318,235.871969 C203.001318,241.116616 204.371621,245.253998 207.112269,248.284238 C209.852918,251.314479 213.38072,252.829577 217.695783,252.829577 C222.127469,252.829577 225.713583,251.372752 228.454231,248.459059 C231.194879,245.545366 232.565183,241.407984 232.565183,236.04679 L232.215314,225.907189 C232.215314,220.77909 234.431124,216.233797 238.862811,212.271175 C243.177874,208.308553 249.008952,206.327271 256.356222,206.327271 C266.035958,206.327271 273.412272,209.299193 278.485387,215.243127 C283.558501,221.18706 286.095021,232.142381 286.095021,248.109418 L286.095021,254.402963 C258.571916,264.426066 238.892025,272.933922 227.054758,279.926784 C215.217491,286.919647 206.908204,294.378589 202.126647,302.303834 C198.627947,308.014672 196.878624,314.774338 196.878624,322.583034 C196.878624,334.937092 200.464737,344.901772 207.637072,352.477374 C214.809406,360.052975 223.935044,363.840719 235.01426,363.840719 C242.128283,363.840719 248.834023,362.383894 255.131683,359.470202 C259.330123,357.48889 269.651132,350.146495 286.095021,337.442794 C286.211644,346.999706 287.960968,353.759372 291.343044,357.721995 C294.72512,361.684617 299.273362,363.665898 304.987905,363.665898 C314.923302,363.665898 325.265345,357.568314 336.01425,345.372992 C348.95114,358.733794 363.928986,365.414105 380.948183,365.414105 C391.708193,365.414105 401.802833,362.595828 411.232249,356.959213 Z M314.959149,302.898229 L314.959149,304.926144 C314.959149,320.193895 315.250703,329.546708 315.83382,332.984866 C316.416936,336.423024 317.379064,338.724806 318.720232,339.890283 C320.061401,341.055761 321.606637,341.63849 323.355986,341.63849 C325.22196,341.63849 326.854662,341.23058 328.254142,340.414746 C328.830505,340.058181 329.532815,339.54993 330.361075,338.889993 C322.642216,328.941423 317.508256,316.944216 314.959148,302.898225 Z M286.095021,326.079448 L286.095021,265.067025 C268.484899,272.059888 257.114295,277.013092 251.982869,279.926784 C242.769626,285.054884 236.180507,290.415998 232.215314,296.010289 C228.250121,301.604579 226.267555,307.723242 226.267555,314.366462 C226.267555,322.757897 228.774918,329.721519 233.789721,335.257535 C238.804524,340.793551 244.577292,343.561518 251.108198,343.561518 C259.971571,343.561518 271.633729,337.73422 286.095021,326.079448 Z" id="ac-green-" sketch:type="MSShapeGroup"></path>
        </g>
    </g>
</svg>